Coordinates
version=1
nRows=22
nColumns=33
inDegrees=yes

Units are S.I. units (second, meters, Newtons, ...)
Angles are in degrees.

endheader
time	ground_thorax_rot_x	ground_thorax_rot_y	ground_thorax_rot_z	ground_thorax_tx	ground_thorax_ty	ground_thorax_tz	clav_prot_r	clav_elev_r	scapula_abduction_r	scapula_elevation_r	scapula_upward_rot_r	scapula_winging_r	shoulder_elv_r	plane_of_elev_r	axial_rot_r	elbow_flexion_r	pro_sup_r	wrist_flex_r	wrist_dev_r	clav_prot_l	clav_elev_l	scapula_abduction_l	scapula_elevation_l	scapula_upward_rot_l	scapula_winging_l	shoulder_elv_l	plane_of_elev_l	axial_rot_l	elbow_flexion_l	pro_sup_l	wrist_flex_l	wrist_dev_l	
4.4100	-25.347063	-35.618987	51.741969	-77.321880	837.155849	-47.059747	23.852225	-45.000000	44.772270	-45.000000	-21.584977	2402.021392	-1534.694626	144.307826	-180.000000	3590.438355	420.536441	30.282789	16.949832	-0.701695	34.524592	-35.565531	-45.000000	-45.000000	2973.952123	-6040.609809	26.385032	42.683847	1788.294853	-323.679180	15.389139	-19.870120	
4.4200	-25.170497	-35.744573	51.999092	-76.321150	836.900958	-47.016791	23.834041	-45.000000	44.808503	-45.000000	-21.513839	2402.027733	-1534.739167	144.290857	-180.000000	3590.417629	420.505529	30.197956	16.987777	-0.712824	34.513945	-35.498408	-45.000000	-45.000000	2973.900276	-6040.623907	26.388183	42.771147	1788.277448	-323.659521	15.406037	-19.782575	
4.4300	-24.988786	-35.866109	52.248742	-75.321335	836.709990	-46.976020	23.816014	-45.000000	44.844653	-45.000000	-21.451617	2402.019184	-1534.801313	144.258598	-180.000000	3590.396272	420.481912	30.094458	17.016364	-0.753463	34.480997	-35.407316	-45.000000	-45.000000	2973.837696	-6040.648460	26.401718	42.872539	1788.264454	-323.622197	15.415932	-19.691391	
4.4400	-24.769763	-35.996658	52.520833	-74.338846	836.659890	-46.940201	23.772688	-45.000000	44.875983	-45.000000	-21.377706	2402.023377	-1534.848481	144.235204	-180.000000	3590.374285	420.461486	30.004945	17.053133	-0.813097	34.455632	-35.252506	-45.000000	-45.000000	2973.741753	-6040.672159	26.415937	42.992414	1788.248924	-323.571468	15.420630	-19.610393	
4.4500	-24.515725	-36.130572	52.811203	-73.382717	836.795411	-46.911350	23.709820	-45.000000	44.896102	-45.000000	-21.310447	2402.019762	-1534.902822	144.201975	-180.000000	3590.352493	420.445295	29.901551	17.083517	-0.918009	34.405822	-35.025374	-45.000000	-45.000000	2973.611253	-6040.707721	26.438911	43.133050	1788.244674	-323.507709	15.414818	-19.527159	
4.4600	-24.122143	-36.297655	53.179954	-72.526206	837.461223	-46.901816	23.564169	-45.000000	44.918149	-45.000000	-21.227434	2402.031724	-1534.936245	144.168935	-180.000000	3590.330644	420.436524	29.782830	17.103603	-1.112004	34.345553	-34.558656	-45.000000	-45.000000	2973.360924	-6040.757017	26.463636	43.339264	1788.251522	-323.425614	15.388123	-19.447943	
4.4700	-23.609650	-36.491138	53.631182	-71.745465	838.541532	-46.908381	23.382733	-45.000000	44.935466	-45.000000	-21.180130	2402.052467	-1534.962034	144.132328	-180.000000	3590.311173	420.440066	29.643698	17.110657	-1.403033	34.248610	-33.910406	-45.000000	-45.000000	2973.025827	-6040.829817	26.489631	43.559551	1788.282776	-323.323657	15.346342	-19.370179	
4.4800	-22.990794	-36.715520	54.164754	-71.019032	839.932257	-46.928246	23.165803	-45.000000	44.954363	-45.000000	-21.168053	2402.087010	-1534.973153	144.097828	-180.000000	3590.293789	420.456018	29.500305	17.110943	-1.752239	34.152276	-33.123483	-45.000000	-45.000000	2972.629164	-6040.921189	26.505889	43.776260	1788.326940	-323.202887	15.291684	-19.301948	
4.4900	-22.381427	-36.943746	54.723790	-70.247152	841.163808	-46.946203	22.989663	-45.000000	44.969511	-45.000000	-21.212577	2402.127420	-1534.983897	144.071116	-180.000000	3590.277956	420.481187	29.365013	17.113820	-2.086040	34.053361	-32.401773	-45.000000	-45.000000	2972.271021	-6041.015191	26.508640	43.917709	1788.376696	-323.070850	15.242165	-19.239090	
4.5000	-21.810922	-37.167308	55.270280	-69.418892	842.186062	-46.960962	22.838761	-45.000000	44.986162	-45.000000	-21.275996	2402.160746	-1535.001769	144.040051	-180.000000	3590.259833	420.510788	29.240820	17.122060	-2.374727	33.981279	-31.769235	-45.000000	-45.000000	2971.960586	-6041.104962	26.504350	44.022732	1788.414550	-322.932078	15.193296	-19.178965	
4.5100	-21.378189	-37.358915	55.747674	-68.459461	842.645374	-46.960386	22.768020	-45.000000	44.995734	-45.000000	-21.357066	2402.190168	-1535.033771	144.021549	-180.000000	3590.240629	420.536841	29.141972	17.143902	-2.567441	33.920667	-31.377770	-45.000000	-45.000000	2971.769814	-6041.172606	26.495606	44.049412	1788.440861	-322.797264	15.164543	-19.122601	
4.5200	-21.081672	-37.518558	56.141405	-67.390065	842.636175	-46.946652	22.747457	-45.000000	45.000000	-45.000000	-21.412776	2402.188939	-1535.090356	143.993720	-180.000000	3590.216686	420.556834	29.050924	17.176043	-2.659666	33.897074	-31.198536	-45.000000	-45.000000	2971.680783	-6041.217537	26.486634	44.055617	1788.446392	-322.669579	15.137774	-19.057798	
4.5300	-20.900927	-37.647852	56.454128	-66.229692	842.235852	-46.920508	22.756372	-45.000000	45.000000	-45.000000	-21.427034	2402.188192	-1535.149758	143.979641	-180.000000	3590.187628	420.564952	28.982672	17.219543	-2.668936	33.882009	-31.180756	-45.000000	-45.000000	2971.663677	-6041.236421	26.479151	44.050678	1788.437894	-322.551302	15.128141	-18.995036	
4.5400	-20.746981	-37.764247	56.727895	-65.064845	841.832261	-46.892354	22.751885	-45.000000	45.000000	-45.000000	-21.392172	2402.163208	-1535.222741	143.947037	-180.000000	3590.153564	420.568988	28.898635	17.261302	-2.664881	33.877406	-31.165363	-45.000000	-45.000000	2971.641142	-6041.248918	26.481183	44.098156	1788.418564	-322.434268	15.106464	-18.918284	
4.5500	-20.600433	-37.874232	56.982857	-63.899648	841.422996	-46.859122	22.734357	-45.000000	45.000000	-45.000000	-21.334997	2402.156993	-1535.284726	143.929301	-180.000000	3590.116202	420.566079	28.831293	17.303381	-2.662443	33.856762	-31.137819	-45.000000	-45.000000	2971.610841	-6041.258768	26.487334	44.154019	1788.402495	-322.318695	15.098537	-18.853275	
4.5600	-20.457360	-37.983061	57.238338	-62.737067	841.006225	-46.818049	22.725686	-45.000000	45.000000	-45.000000	-21.272271	2402.128084	-1535.358547	143.894885	-180.000000	3590.075127	420.568533	28.739201	17.344110	-2.655701	33.848399	-31.114279	-45.000000	-45.000000	2971.581521	-6041.271910	26.490296	44.210825	1788.389953	-322.201542	15.074936	-18.775970	
4.5700	-20.314802	-38.088877	57.487899	-61.578136	840.581244	-46.767419	22.701441	-45.000000	45.000000	-45.000000	-21.203386	2402.117665	-1535.419989	143.875881	-180.000000	3590.025980	420.565949	28.677291	17.382042	-2.654245	33.822934	-31.080983	-45.000000	-45.000000	2971.553528	-6041.288190	26.499978	44.257154	1788.383477	-322.085108	15.073642	-18.721977	
4.5800	-20.173858	-38.193710	57.740693	-60.422820	840.148440	-46.706489	22.690301	-45.000000	45.000000	-45.000000	-21.131011	2402.085597	-1535.493201	143.841801	-180.000000	3589.978926	420.573645	28.588186	17.420439	-2.648261	33.809854	-31.054455	-45.000000	-45.000000	2971.529201	-6041.307740	26.507480	44.297983	1788.376417	-321.965387	15.056745	-18.654920	
4.5900	-20.030545	-38.296372	57.991609	-59.270035	839.709099	-46.635494	22.664652	-45.000000	45.000000	-45.000000	-21.056512	2402.070742	-1535.555471	143.819716	-180.000000	3589.924941	420.581627	28.519199	17.453165	-2.648488	33.784697	-31.019937	-45.000000	-45.000000	2971.501468	-6041.328177	26.513386	44.329304	1788.377707	-321.846592	15.053342	-18.605844	
4.6000	-19.889980	-38.400284	58.246193	-58.118943	839.265035	-46.555181	22.658195	-45.000000	45.000000	-45.000000	-20.985149	2402.032643	-1535.633609	143.780441	-180.000000	3589.877751	420.610403	28.401051	17.494141	-2.644684	33.776407	-30.998624	-45.000000	-45.000000	2971.478660	-6041.357044	26.509852	44.360755	1788.385310	-321.725500	15.021697	-18.536054	
4.6100	-19.750037	-38.500435	58.493910	-56.968633	838.818113	-46.466632	22.636230	-45.000000	45.000000	-45.000000	-20.913380	2402.015217	-1535.703055	143.756178	-180.000000	3589.823823	420.639576	28.314584	17.525115	-2.647457	33.757139	-30.972305	-45.000000	-45.000000	2971.453893	-6041.389582	26.503282	44.388380	1788.396906	-321.605614	15.006971	-18.488678	
4.6200	-19.613244	-38.598424	58.740936	-55.819368	838.370018	-46.370920	22.630964	-45.000000	45.000000	-45.000000	-20.842338	2401.980390	-1535.787583	143.718363	-180.000000	3589.780360	420.690770	28.191132	17.564222	-2.642307	33.750736	-30.953832	-45.000000	-45.000000	2971.432621	-6041.427564	26.492803	44.419413	1788.408631	-321.482449	14.968852	-18.421977	
